<svg xmlns="http://www.w3.org/2000/svg" width="22" height="19" viewBox="0 0 22 19" fill="none"  xmlns:xlink="http://www.w3.org/1999/xlink" preserveAspectRatio="xMinYMin meet"><rect id="svgEditorBackground" x="0" y="0" width="22" height="19" style="fill:none;stroke:none"/>
<path d="M20.2991,9.78586C22.567,7.54338,22.567,3.90213,20.2991,1.6818600000000001C18.0311,-0.5606190000000001,14.3486,-0.5606190000000001,12.0806,1.6818600000000001L10.9804,2.792L9.88007,1.7040600000000001C7.61215,-0.5606190000000001,3.92957,-0.5606190000000001,1.6841000000000002,1.6818600000000001C0.5838220000000001,2.7697900000000004,0,4.21297,0,5.74496C0,7.27695,0.6062770000000001,8.72013,1.6841000000000002,9.80806L10.9804,19L20.2991,9.78586ZM1.4371,5.74496C1.4371,4.59042,1.8862,3.52469,2.71702,2.72539C3.5703,1.8816800000000002,4.67058,1.45983,5.77086,1.45983C6.8711400000000005,1.45983,7.97142,1.8816800000000002,8.8247,2.72539L10.9804,4.83465L13.136,2.70318C14.8201,1.03798,17.582,1.03798,19.2437,2.70318C20.0521,3.50248,20.523600000000002,4.56821,20.523600000000002,5.72276C20.523600000000002,6.8773,20.0745,7.94303,19.2437,8.74233L10.9804,16.9351L2.71702,8.76453C1.9086500000000002,7.94303,1.4371,6.8773,1.4371,5.74496Z" style="fill:red;"/>
</svg>